<mxfile host="65bd71144e">
    <diagram id="J-q9r0Hurnt4wWTVtTKm" name="Page-1">
        <mxGraphModel dx="804" dy="405" grid="1" gridSize="10" guides="1" tooltips="1" connect="1" arrows="1" fold="1" page="1" pageScale="1" pageWidth="850" pageHeight="1100" math="0" shadow="0">
            <root>
                <mxCell id="0"/>
                <mxCell id="1" parent="0"/>
                <mxCell id="6" value="" style="edgeStyle=none;html=1;" parent="1" source="2" target="5" edge="1">
                    <mxGeometry relative="1" as="geometry"/>
                </mxCell>
                <mxCell id="2" value="inicio" style="ellipse;whiteSpace=wrap;html=1;fillColor=#6a00ff;fontColor=#ffffff;strokeColor=#3700CC;" parent="1" vertex="1">
                    <mxGeometry x="350" y="10" width="120" height="80" as="geometry"/>
                </mxCell>
                <mxCell id="8" value="" style="edgeStyle=none;html=1;" parent="1" source="5" target="7" edge="1">
                    <mxGeometry relative="1" as="geometry"/>
                </mxCell>
                <mxCell id="5" value="c" style="shape=parallelogram;perimeter=parallelogramPerimeter;whiteSpace=wrap;html=1;fixedSize=1;fillColor=#60a917;fontColor=#ffffff;strokeColor=#2D7600;" parent="1" vertex="1">
                    <mxGeometry x="350" y="180" width="120" height="60" as="geometry"/>
                </mxCell>
                <mxCell id="9" style="edgeStyle=none;html=1;exitX=1;exitY=0.5;exitDx=0;exitDy=0;" parent="1" source="7" edge="1">
                    <mxGeometry relative="1" as="geometry">
                        <mxPoint x="560" y="410" as="targetPoint"/>
                        <Array as="points">
                            <mxPoint x="560" y="350"/>
                        </Array>
                    </mxGeometry>
                </mxCell>
                <mxCell id="10" style="edgeStyle=none;html=1;exitX=0;exitY=0.5;exitDx=0;exitDy=0;" parent="1" source="7" edge="1">
                    <mxGeometry relative="1" as="geometry">
                        <mxPoint x="260" y="420" as="targetPoint"/>
                        <Array as="points">
                            <mxPoint x="260" y="350"/>
                        </Array>
                    </mxGeometry>
                </mxCell>
                <mxCell id="7" value="c&amp;gt;999" style="rhombus;whiteSpace=wrap;html=1;fillColor=#1ba1e2;fontColor=#ffffff;strokeColor=#006EAF;" parent="1" vertex="1">
                    <mxGeometry x="370" y="310" width="80" height="80" as="geometry"/>
                </mxCell>
                <mxCell id="12" value="F" style="text;html=1;strokeColor=none;fillColor=none;align=center;verticalAlign=middle;whiteSpace=wrap;rounded=0;" parent="1" vertex="1">
                    <mxGeometry x="290" y="320" width="60" height="30" as="geometry"/>
                </mxCell>
                <mxCell id="24" style="edgeStyle=none;html=1;entryX=0.5;entryY=0;entryDx=0;entryDy=0;" parent="1" source="13" target="23" edge="1">
                    <mxGeometry relative="1" as="geometry">
                        <mxPoint x="560" y="600" as="targetPoint"/>
                        <Array as="points">
                            <mxPoint x="260" y="600"/>
                            <mxPoint x="560" y="600"/>
                        </Array>
                    </mxGeometry>
                </mxCell>
                <mxCell id="13" value="no cumple=c" style="rounded=0;whiteSpace=wrap;html=1;fillColor=#d80073;fontColor=#ffffff;strokeColor=#A50040;" parent="1" vertex="1">
                    <mxGeometry x="200" y="410" width="120" height="60" as="geometry"/>
                </mxCell>
                <mxCell id="17" style="edgeStyle=none;html=1;exitX=1;exitY=0.5;exitDx=0;exitDy=0;" parent="1" source="16" edge="1">
                    <mxGeometry relative="1" as="geometry">
                        <mxPoint x="660" y="500" as="targetPoint"/>
                        <Array as="points">
                            <mxPoint x="660" y="440"/>
                        </Array>
                    </mxGeometry>
                </mxCell>
                <mxCell id="18" style="edgeStyle=none;html=1;exitX=0;exitY=0.5;exitDx=0;exitDy=0;" parent="1" source="16" edge="1">
                    <mxGeometry relative="1" as="geometry">
                        <mxPoint x="450" y="500" as="targetPoint"/>
                        <Array as="points">
                            <mxPoint x="450" y="440"/>
                        </Array>
                    </mxGeometry>
                </mxCell>
                <mxCell id="16" value="c&amp;lt;=9999" style="rhombus;whiteSpace=wrap;html=1;fillColor=#1ba1e2;fontColor=#ffffff;strokeColor=#006EAF;" parent="1" vertex="1">
                    <mxGeometry x="520" y="400" width="80" height="80" as="geometry"/>
                </mxCell>
                <mxCell id="21" style="edgeStyle=none;html=1;exitX=0.5;exitY=1;exitDx=0;exitDy=0;" parent="1" source="19" edge="1">
                    <mxGeometry relative="1" as="geometry">
                        <mxPoint x="560" y="660" as="targetPoint"/>
                        <Array as="points">
                            <mxPoint x="460" y="600"/>
                            <mxPoint x="560" y="600"/>
                        </Array>
                    </mxGeometry>
                </mxCell>
                <mxCell id="19" value="cumple=c" style="rounded=0;whiteSpace=wrap;html=1;fillColor=#d80073;fontColor=#ffffff;strokeColor=#A50040;" parent="1" vertex="1">
                    <mxGeometry x="400" y="490" width="120" height="60" as="geometry"/>
                </mxCell>
                <mxCell id="22" style="edgeStyle=none;html=1;" parent="1" source="20" target="23" edge="1">
                    <mxGeometry relative="1" as="geometry">
                        <mxPoint x="560" y="660" as="targetPoint"/>
                        <Array as="points">
                            <mxPoint x="660" y="600"/>
                            <mxPoint x="560" y="600"/>
                        </Array>
                    </mxGeometry>
                </mxCell>
                <mxCell id="20" value="no cumple=c" style="rounded=0;whiteSpace=wrap;html=1;fillColor=#d80073;fontColor=#ffffff;strokeColor=#A50040;" parent="1" vertex="1">
                    <mxGeometry x="600" y="490" width="120" height="60" as="geometry"/>
                </mxCell>
                <mxCell id="26" value="" style="edgeStyle=none;html=1;" parent="1" source="23" target="25" edge="1">
                    <mxGeometry relative="1" as="geometry"/>
                </mxCell>
                <mxCell id="23" value="cumple,or, no cumple" style="shape=document;whiteSpace=wrap;html=1;boundedLbl=1;fillColor=#f0a30a;fontColor=#000000;strokeColor=#BD7000;" parent="1" vertex="1">
                    <mxGeometry x="500" y="660" width="120" height="80" as="geometry"/>
                </mxCell>
                <mxCell id="25" value="fin" style="ellipse;whiteSpace=wrap;html=1;fillColor=#6a00ff;fontColor=#ffffff;strokeColor=#3700CC;" parent="1" vertex="1">
                    <mxGeometry x="500" y="830" width="120" height="60" as="geometry"/>
                </mxCell>
                <mxCell id="27" value="V" style="text;html=1;strokeColor=none;fillColor=none;align=center;verticalAlign=middle;whiteSpace=wrap;rounded=0;" vertex="1" parent="1">
                    <mxGeometry x="470" y="320" width="60" height="30" as="geometry"/>
                </mxCell>
                <mxCell id="28" value="V" style="text;html=1;strokeColor=none;fillColor=none;align=center;verticalAlign=middle;whiteSpace=wrap;rounded=0;" vertex="1" parent="1">
                    <mxGeometry x="610" y="410" width="60" height="30" as="geometry"/>
                </mxCell>
                <mxCell id="29" value="F" style="text;html=1;strokeColor=none;fillColor=none;align=center;verticalAlign=middle;whiteSpace=wrap;rounded=0;" vertex="1" parent="1">
                    <mxGeometry x="440" y="410" width="60" height="30" as="geometry"/>
                </mxCell>
            </root>
        </mxGraphModel>
    </diagram>
</mxfile>